<svg width="38" height="38" viewBox="0 0 38 38" fill="none" xmlns="http://www.w3.org/2000/svg">
<path d="M19 5.5415C21.6064 5.5414 24.1569 6.29816 26.3415 7.71989C28.5261 9.14161 30.2508 11.1671 31.3062 13.5504C32.3616 15.9336 32.7023 18.572 32.2868 21.1452C31.8713 23.7184 30.7175 26.1155 28.9657 28.0454C27.2138 29.9754 24.9392 31.3551 22.4181 32.017C19.8971 32.6789 17.2381 32.5945 14.7641 31.774C12.2901 30.9536 10.1076 29.4323 8.48172 27.3952C6.85579 25.358 5.85641 22.8925 5.60496 20.2982C5.59064 20.1432 5.62232 19.9874 5.69604 19.8504C5.76976 19.7133 5.88224 19.601 6.01943 19.5275C6.15661 19.454 6.31242 19.4226 6.46737 19.4372C6.62232 19.4517 6.76954 19.5116 6.89062 19.6094C7.70887 20.2715 8.65094 20.7638 9.66172 21.0575C10.6725 21.3512 11.7317 21.4404 12.7774 21.3198C13.823 21.1992 14.8341 20.8714 15.7515 20.3554C16.669 19.8394 17.4743 19.1456 18.1204 18.3146C18.7665 17.4837 19.2404 16.5322 19.5143 15.5159C19.7883 14.4996 19.8569 13.4389 19.716 12.3958C19.5752 11.3527 19.2277 10.3481 18.6939 9.44088C18.1602 8.53366 17.4509 7.74199 16.6075 7.11217C16.4824 7.01867 16.3877 6.89024 16.3354 6.74304C16.2831 6.59584 16.2755 6.43646 16.3136 6.28496C16.3517 6.13345 16.4338 5.99661 16.5494 5.89164C16.6651 5.78668 16.8093 5.71829 16.9638 5.69509C17.6377 5.59278 18.3183 5.54144 19 5.5415Z" fill="#1A232E"/>
</svg>
