<svg width="34" height="34" viewBox="0 0 34 34" fill="none" xmlns="http://www.w3.org/2000/svg">
<g opacity="0.8">
<path d="M15.9375 5.3125V2.125C15.9375 1.84321 16.0494 1.57296 16.2487 1.3737C16.448 1.17444 16.7182 1.0625 17 1.0625C17.2818 1.0625 17.552 1.17444 17.7513 1.3737C17.9506 1.57296 18.0625 1.84321 18.0625 2.125V5.3125C18.0625 5.59429 17.9506 5.86454 17.7513 6.0638C17.552 6.26306 17.2818 6.375 17 6.375C16.7182 6.375 16.448 6.26306 16.2487 6.0638C16.0494 5.86454 15.9375 5.59429 15.9375 5.3125ZM17 8.5C15.3189 8.5 13.6755 8.99852 12.2777 9.93251C10.8798 10.8665 9.79037 12.194 9.14702 13.7472C8.50368 15.3004 8.33535 17.0094 8.66333 18.6583C8.9913 20.3071 9.80085 21.8217 10.9896 23.0104C12.1783 24.1992 13.6929 25.0087 15.3417 25.3367C16.9906 25.6646 18.6996 25.4963 20.2528 24.853C21.806 24.2096 23.1335 23.1202 24.0675 21.7223C25.0015 20.3245 25.5 18.6811 25.5 17C25.4975 14.7464 24.6012 12.5858 23.0077 10.9923C21.4142 9.39878 19.2536 8.50246 17 8.5ZM7.74828 9.25172C7.94765 9.45109 8.21805 9.56309 8.5 9.56309C8.78195 9.56309 9.05235 9.45109 9.25172 9.25172C9.45109 9.05235 9.56309 8.78195 9.56309 8.5C9.56309 8.21805 9.45109 7.94765 9.25172 7.74828L7.12672 5.62328C6.92735 5.42391 6.65695 5.31191 6.375 5.31191C6.09305 5.31191 5.82265 5.42391 5.62328 5.62328C5.42391 5.82265 5.31191 6.09305 5.31191 6.375C5.31191 6.65695 5.42391 6.92735 5.62328 7.12672L7.74828 9.25172ZM7.74828 24.7483L5.62328 26.8733C5.42391 27.0726 5.31191 27.3431 5.31191 27.625C5.31191 27.9069 5.42391 28.1774 5.62328 28.3767C5.82265 28.5761 6.09305 28.6881 6.375 28.6881C6.65695 28.6881 6.92735 28.5761 7.12672 28.3767L9.25172 26.2517C9.35044 26.153 9.42874 26.0358 9.48217 25.9068C9.53559 25.7778 9.56309 25.6396 9.56309 25.5C9.56309 25.3604 9.53559 25.2222 9.48217 25.0932C9.42874 24.9642 9.35044 24.847 9.25172 24.7483C9.153 24.6496 9.03581 24.5713 8.90683 24.5178C8.77785 24.4644 8.63961 24.4369 8.5 24.4369C8.36039 24.4369 8.22215 24.4644 8.09317 24.5178C7.96419 24.5713 7.847 24.6496 7.74828 24.7483ZM25.5 9.5625C25.6396 9.56261 25.7778 9.53522 25.9068 9.48189C26.0358 9.42857 26.153 9.35036 26.2517 9.25172L28.3767 7.12672C28.5761 6.92735 28.6881 6.65695 28.6881 6.375C28.6881 6.09305 28.5761 5.82265 28.3767 5.62328C28.1774 5.42391 27.9069 5.31191 27.625 5.31191C27.3431 5.31191 27.0726 5.42391 26.8733 5.62328L24.7483 7.74828C24.5995 7.89688 24.4982 8.08627 24.4571 8.29249C24.4161 8.4987 24.4371 8.71247 24.5176 8.90671C24.5981 9.10096 24.7344 9.26696 24.9093 9.3837C25.0842 9.50044 25.2897 9.56267 25.5 9.5625ZM26.2517 24.7483C26.0524 24.5489 25.7819 24.4369 25.5 24.4369C25.2181 24.4369 24.9476 24.5489 24.7483 24.7483C24.5489 24.9476 24.4369 25.2181 24.4369 25.5C24.4369 25.7819 24.5489 26.0524 24.7483 26.2517L26.8733 28.3767C26.972 28.4754 27.0892 28.5537 27.2182 28.6072C27.3472 28.6606 27.4854 28.6881 27.625 28.6881C27.7646 28.6881 27.9028 28.6606 28.0318 28.6072C28.1608 28.5537 28.278 28.4754 28.3767 28.3767C28.4754 28.278 28.5537 28.1608 28.6072 28.0318C28.6606 27.9028 28.6881 27.7646 28.6881 27.625C28.6881 27.4854 28.6606 27.3472 28.6072 27.2182C28.5537 27.0892 28.4754 26.972 28.3767 26.8733L26.2517 24.7483ZM6.375 17C6.375 16.7182 6.26306 16.448 6.0638 16.2487C5.86454 16.0494 5.59429 15.9375 5.3125 15.9375H2.125C1.84321 15.9375 1.57296 16.0494 1.3737 16.2487C1.17444 16.448 1.0625 16.7182 1.0625 17C1.0625 17.2818 1.17444 17.552 1.3737 17.7513C1.57296 17.9506 1.84321 18.0625 2.125 18.0625H5.3125C5.59429 18.0625 5.86454 17.9506 6.0638 17.7513C6.26306 17.552 6.375 17.2818 6.375 17ZM17 27.625C16.7182 27.625 16.448 27.7369 16.2487 27.9362C16.0494 28.1355 15.9375 28.4057 15.9375 28.6875V31.875C15.9375 32.1568 16.0494 32.427 16.2487 32.6263C16.448 32.8256 16.7182 32.9375 17 32.9375C17.2818 32.9375 17.552 32.8256 17.7513 32.6263C17.9506 32.427 18.0625 32.1568 18.0625 31.875V28.6875C18.0625 28.4057 17.9506 28.1355 17.7513 27.9362C17.552 27.7369 17.2818 27.625 17 27.625ZM31.875 15.9375H28.6875C28.4057 15.9375 28.1355 16.0494 27.9362 16.2487C27.7369 16.448 27.625 16.7182 27.625 17C27.625 17.2818 27.7369 17.552 27.9362 17.7513C28.1355 17.9506 28.4057 18.0625 28.6875 18.0625H31.875C32.1568 18.0625 32.427 17.9506 32.6263 17.7513C32.8256 17.552 32.9375 17.2818 32.9375 17C32.9375 16.7182 32.8256 16.448 32.6263 16.2487C32.427 16.0494 32.1568 15.9375 31.875 15.9375Z" fill="white"/>
</g>
</svg>
